# xmcd CD database file
#
# Track frame offsets:
#	150
#	8298
#	34961
#	63463
#	84093
#	105502
#	141237
#	158953
#	196361
#	222158
#
# Disc length: 3240 seconds
#
# Revision: 1
# Processed by: cddbd v1.5.1PL2 Copyright (c) Steve Scherf et al.
# Submitted via: CDex 1.51
#
DISCID=7b0ca60a
DTITLE=Hermann Hesse - Demian CD1
DYEAR=2002
DGENRE=Hörspiel
TTITLE0=Demian CD1 01
TTITLE1=Demian CD1 02
TTITLE2=Demian CD1 03
TTITLE3=Demian CD1 04
TTITLE4=Demian CD1 05
TTITLE5=Demian CD1 06
TTITLE6=Demian CD1 07
TTITLE7=Demian CD1 08
TTITLE8=Demian CD1 09
TTITLE9=Demian CD1 10
EXTD=YEAR: 2002
EXTT0=
EXTT1=
EXTT2=
EXTT3=
EXTT4=
EXTT5=
EXTT6=
EXTT7=
EXTT8=
EXTT9=
PLAYORDER=
